<svg xmlns="http://www.w3.org/2000/svg" viewBox="0 0 200 200" width="100%" height="100%">
  <defs>
    <radialGradient id="glow" cx="50%" cy="50%" r="50%">
      <stop offset="0%" stop-color="#00FFFF" stop-opacity="0.4" />
      <stop offset="100%" stop-color="#00FFFF" stop-opacity="0" />
    </radialGradient>
  </defs>
  <rect width="200" height="200" fill="#1C2530"/>
  <circle cx="100" cy="100" r="90" fill="url(#glow)"/>
  <circle cx="100" cy="100" r="90" fill="none" stroke="#00FFFF" stroke-width="2" stroke-opacity="0.3" stroke-dasharray="4 8"/>
  <circle cx="100" cy="100" r="80" fill="none" stroke="#00FFFF" stroke-width="2" stroke-opacity="0.6"/>
  
  <!-- Crystal -->
  <path d="M 100 30 L 130 80 L 130 140 L 100 170 L 70 140 L 70 80 Z" fill="none" stroke="#00FFFF" stroke-width="6" stroke-linejoin="round"/>
  <path d="M 100 30 L 100 170" fill="none" stroke="#00FFFF" stroke-width="3" stroke-opacity="0.7"/>
  <path d="M 70 80 L 100 100 L 130 80" fill="none" stroke="#00FFFF" stroke-width="3" stroke-opacity="0.7"/>
  <path d="M 70 140 L 100 120 L 130 140" fill="none" stroke="#00FFFF" stroke-width="3" stroke-opacity="0.7"/>
  
  <!-- Brackets -->
  <path d="M 45 100 L 65 80 M 45 100 L 65 120" fill="none" stroke="#00FFFF" stroke-width="6" stroke-linecap="round" stroke-linejoin="round"/>
  <path d="M 155 100 L 135 80 M 155 100 L 135 120" fill="none" stroke="#00FFFF" stroke-width="6" stroke-linecap="round" stroke-linejoin="round"/>
</svg>
